<mxfile host="app.diagrams.net" modified="2024-01-10T02:40:32.733Z" agent="Mozilla/5.0 (Windows NT 10.0; Win64; x64) AppleWebKit/537.36 (KHTML, like Gecko) Chrome/120.0.0.0 Safari/537.36" etag="ayu2i3V7v2cPGi43PiqG" version="22.1.18" type="github">
  <diagram name="Page-1" id="VQsHgmHpjilepcqTfe5d">
    <mxGraphModel dx="2236" dy="4337" grid="0" gridSize="10" guides="1" tooltips="1" connect="1" arrows="1" fold="1" page="0" pageScale="1" pageWidth="850" pageHeight="1100" math="0" shadow="0">
      <root>
        <mxCell id="0" />
        <mxCell id="1" parent="0" />
        <mxCell id="CE21XfU1R8qpKtoGvkG8-37" value="" style="shape=parallelogram;html=1;strokeWidth=2;perimeter=parallelogramPerimeter;whiteSpace=wrap;rounded=1;arcSize=12;size=0.23;fontFamily=IBM Plex Sans;" parent="1" vertex="1">
          <mxGeometry x="-1263" y="-3659" width="100" height="60" as="geometry" />
        </mxCell>
        <mxCell id="CE21XfU1R8qpKtoGvkG8-38" value="&lt;font face=&quot;CMU Serif&quot; style=&quot;font-size: 30px;&quot;&gt;a&lt;/font&gt;" style="text;strokeColor=none;align=center;fillColor=none;html=1;verticalAlign=middle;whiteSpace=wrap;rounded=0;fontSize=30;" parent="1" vertex="1">
          <mxGeometry x="-1243.0000122070312" y="-3644" width="60" height="30" as="geometry" />
        </mxCell>
        <mxCell id="CE21XfU1R8qpKtoGvkG8-39" value="" style="shape=parallelogram;html=1;strokeWidth=2;perimeter=parallelogramPerimeter;whiteSpace=wrap;rounded=1;arcSize=12;size=0.23;fontFamily=IBM Plex Sans;" parent="1" vertex="1">
          <mxGeometry x="-1263" y="-3585" width="100" height="60" as="geometry" />
        </mxCell>
        <mxCell id="CE21XfU1R8qpKtoGvkG8-40" value="&lt;font face=&quot;CMU Serif&quot;&gt;á&lt;/font&gt;" style="text;strokeColor=none;align=center;fillColor=none;html=1;verticalAlign=middle;whiteSpace=wrap;rounded=0;fontSize=30;" parent="1" vertex="1">
          <mxGeometry x="-1243.0000122070312" y="-3570" width="60" height="30" as="geometry" />
        </mxCell>
        <mxCell id="CE21XfU1R8qpKtoGvkG8-41" value="" style="shape=parallelogram;html=1;strokeWidth=2;perimeter=parallelogramPerimeter;whiteSpace=wrap;rounded=1;arcSize=12;size=0.23;fontFamily=IBM Plex Sans;" parent="1" vertex="1">
          <mxGeometry x="-1263" y="-3512" width="100" height="60" as="geometry" />
        </mxCell>
        <mxCell id="CE21XfU1R8qpKtoGvkG8-42" value="&lt;font face=&quot;CMU Serif&quot;&gt;ą&lt;/font&gt;" style="text;strokeColor=none;align=center;fillColor=none;html=1;verticalAlign=middle;whiteSpace=wrap;rounded=0;fontSize=30;" parent="1" vertex="1">
          <mxGeometry x="-1243.0000122070312" y="-3497" width="60" height="30" as="geometry" />
        </mxCell>
        <mxCell id="CE21XfU1R8qpKtoGvkG8-43" value="" style="shape=parallelogram;html=1;strokeWidth=2;perimeter=parallelogramPerimeter;whiteSpace=wrap;rounded=1;arcSize=12;size=0.23;fontFamily=IBM Plex Sans;" parent="1" vertex="1">
          <mxGeometry x="-1263" y="-3438" width="100" height="60" as="geometry" />
        </mxCell>
        <mxCell id="CE21XfU1R8qpKtoGvkG8-44" value="&lt;p&gt;&lt;font face=&quot;CMU Serif&quot;&gt;ą́&lt;/font&gt;&lt;/p&gt;" style="text;strokeColor=none;align=center;fillColor=none;html=1;verticalAlign=middle;whiteSpace=wrap;rounded=0;fontSize=30;" parent="1" vertex="1">
          <mxGeometry x="-1243.0000122070312" y="-3423" width="60" height="30" as="geometry" />
        </mxCell>
        <mxCell id="CE21XfU1R8qpKtoGvkG8-45" value="" style="shape=parallelogram;html=1;strokeWidth=2;perimeter=parallelogramPerimeter;whiteSpace=wrap;rounded=1;arcSize=12;size=0.23;fontFamily=IBM Plex Sans;" parent="1" vertex="1">
          <mxGeometry x="-1263" y="-3365" width="100" height="60" as="geometry" />
        </mxCell>
        <mxCell id="CE21XfU1R8qpKtoGvkG8-46" value="&lt;font face=&quot;IBM Plex Sans&quot; style=&quot;font-size: 30px;&quot;&gt;a&lt;/font&gt;" style="text;strokeColor=none;align=center;fillColor=none;html=1;verticalAlign=middle;whiteSpace=wrap;rounded=0;fontSize=30;" parent="1" vertex="1">
          <mxGeometry x="-1243.0000122070312" y="-3350" width="60" height="30" as="geometry" />
        </mxCell>
        <mxCell id="CE21XfU1R8qpKtoGvkG8-47" value="" style="shape=parallelogram;html=1;strokeWidth=2;perimeter=parallelogramPerimeter;whiteSpace=wrap;rounded=1;arcSize=12;size=0.23;fontFamily=IBM Plex Sans;" parent="1" vertex="1">
          <mxGeometry x="-1263" y="-3291" width="100" height="60" as="geometry" />
        </mxCell>
        <mxCell id="CE21XfU1R8qpKtoGvkG8-48" value="&lt;font face=&quot;IBM Plex Sans&quot; style=&quot;font-size: 30px;&quot;&gt;a&lt;/font&gt;" style="text;strokeColor=none;align=center;fillColor=none;html=1;verticalAlign=middle;whiteSpace=wrap;rounded=0;fontSize=30;" parent="1" vertex="1">
          <mxGeometry x="-1243.0000122070312" y="-3276" width="60" height="30" as="geometry" />
        </mxCell>
        <mxCell id="CE21XfU1R8qpKtoGvkG8-49" value="" style="shape=parallelogram;html=1;strokeWidth=2;perimeter=parallelogramPerimeter;whiteSpace=wrap;rounded=1;arcSize=12;size=0.23;fontFamily=IBM Plex Sans;" parent="1" vertex="1">
          <mxGeometry x="-1263" y="-3218" width="100" height="60" as="geometry" />
        </mxCell>
        <mxCell id="CE21XfU1R8qpKtoGvkG8-50" value="&lt;font face=&quot;IBM Plex Sans&quot; style=&quot;font-size: 30px;&quot;&gt;a&lt;/font&gt;" style="text;strokeColor=none;align=center;fillColor=none;html=1;verticalAlign=middle;whiteSpace=wrap;rounded=0;fontSize=30;" parent="1" vertex="1">
          <mxGeometry x="-1243.0000122070312" y="-3203" width="60" height="30" as="geometry" />
        </mxCell>
        <mxCell id="CE21XfU1R8qpKtoGvkG8-51" value="" style="shape=parallelogram;html=1;strokeWidth=2;perimeter=parallelogramPerimeter;whiteSpace=wrap;rounded=1;arcSize=12;size=0.23;fontFamily=IBM Plex Sans;" parent="1" vertex="1">
          <mxGeometry x="-1263" y="-3144" width="100" height="60" as="geometry" />
        </mxCell>
        <mxCell id="CE21XfU1R8qpKtoGvkG8-52" value="&lt;font face=&quot;IBM Plex Sans&quot; style=&quot;font-size: 30px;&quot;&gt;a&lt;/font&gt;" style="text;strokeColor=none;align=center;fillColor=none;html=1;verticalAlign=middle;whiteSpace=wrap;rounded=0;fontSize=30;" parent="1" vertex="1">
          <mxGeometry x="-1243.0000122070312" y="-3129" width="60" height="30" as="geometry" />
        </mxCell>
        <mxCell id="CE21XfU1R8qpKtoGvkG8-53" value="" style="shape=parallelogram;html=1;strokeWidth=2;perimeter=parallelogramPerimeter;whiteSpace=wrap;rounded=1;arcSize=12;size=0.23;fontFamily=IBM Plex Sans;" parent="1" vertex="1">
          <mxGeometry x="-1263" y="-3070" width="100" height="60" as="geometry" />
        </mxCell>
        <mxCell id="CE21XfU1R8qpKtoGvkG8-54" value="&lt;font face=&quot;IBM Plex Sans&quot; style=&quot;font-size: 30px;&quot;&gt;a&lt;/font&gt;" style="text;strokeColor=none;align=center;fillColor=none;html=1;verticalAlign=middle;whiteSpace=wrap;rounded=0;fontSize=30;" parent="1" vertex="1">
          <mxGeometry x="-1243.0000122070312" y="-3055" width="60" height="30" as="geometry" />
        </mxCell>
        <mxCell id="CE21XfU1R8qpKtoGvkG8-55" value="" style="shape=parallelogram;html=1;strokeWidth=2;perimeter=parallelogramPerimeter;whiteSpace=wrap;rounded=1;arcSize=12;size=0.23;fontFamily=IBM Plex Sans;" parent="1" vertex="1">
          <mxGeometry x="-1263" y="-2996" width="100" height="60" as="geometry" />
        </mxCell>
        <mxCell id="CE21XfU1R8qpKtoGvkG8-56" value="&lt;font face=&quot;IBM Plex Sans&quot; style=&quot;font-size: 30px;&quot;&gt;a&lt;/font&gt;" style="text;strokeColor=none;align=center;fillColor=none;html=1;verticalAlign=middle;whiteSpace=wrap;rounded=0;fontSize=30;" parent="1" vertex="1">
          <mxGeometry x="-1243.0000122070312" y="-2981" width="60" height="30" as="geometry" />
        </mxCell>
        <mxCell id="CE21XfU1R8qpKtoGvkG8-57" value="" style="shape=parallelogram;html=1;strokeWidth=2;perimeter=parallelogramPerimeter;whiteSpace=wrap;rounded=1;arcSize=12;size=0.23;fontFamily=IBM Plex Sans;" parent="1" vertex="1">
          <mxGeometry x="-1263" y="-2923" width="100" height="60" as="geometry" />
        </mxCell>
        <mxCell id="CE21XfU1R8qpKtoGvkG8-58" value="&lt;font face=&quot;IBM Plex Sans&quot; style=&quot;font-size: 30px;&quot;&gt;a&lt;/font&gt;" style="text;strokeColor=none;align=center;fillColor=none;html=1;verticalAlign=middle;whiteSpace=wrap;rounded=0;fontSize=30;" parent="1" vertex="1">
          <mxGeometry x="-1243.0000122070312" y="-2908" width="60" height="30" as="geometry" />
        </mxCell>
        <mxCell id="CE21XfU1R8qpKtoGvkG8-59" value="" style="shape=parallelogram;html=1;strokeWidth=2;perimeter=parallelogramPerimeter;whiteSpace=wrap;rounded=1;arcSize=12;size=0.23;fontFamily=IBM Plex Sans;" parent="1" vertex="1">
          <mxGeometry x="-1263" y="-2849" width="100" height="60" as="geometry" />
        </mxCell>
        <mxCell id="CE21XfU1R8qpKtoGvkG8-60" value="&lt;font face=&quot;IBM Plex Sans&quot; style=&quot;font-size: 30px;&quot;&gt;a&lt;/font&gt;" style="text;strokeColor=none;align=center;fillColor=none;html=1;verticalAlign=middle;whiteSpace=wrap;rounded=0;fontSize=30;" parent="1" vertex="1">
          <mxGeometry x="-1243.0000122070312" y="-2834" width="60" height="30" as="geometry" />
        </mxCell>
      </root>
    </mxGraphModel>
  </diagram>
</mxfile>
